<?xml version="1.0" standalone="no"?>
<!DOCTYPE svg PUBLIC "-//W3C//DTD SVG 1.1//EN" "http://www.w3.org/Graphics/SVG/1.1/DTD/svg11.dtd">
<svg version="1.1" id="Layer_1" xmlns="http://www.w3.org/2000/svg" xmlns:xlink="http://www.w3.org/1999/xlink" x="0px" y="0px" viewBox="0 0 612 792" style="enable-background:new 0 0 612 792;" xml:space="preserve" width="612" height="792">
<style type="text/css">
	.st0{fill-rule:evenodd;clip-rule:evenodd;fill:#0055A5;}
	.st1{fill-rule:evenodd;clip-rule:evenodd;}
	.st2{fill-rule:evenodd;clip-rule:evenodd;fill:#FFFFFF;}
	.st3{fill:#0055A5;}
	.st4{fill:#FFFFFF;}
</style>
<g id="Layer_x0020_1">
	<g id="_2041715831440">
		<path class="st0" d="M-215.9,397.7l2.4,3.2l-8.6,36.3l-22.8,19h-48.3l-16.3-23.7l7.4-31h3l-2.3-3l9.1-38.5l22.5-18.6h47.8    l16.8,24.6l-7.5,31.8L-215.9,397.7L-215.9,397.7z M-115.6,385.2l-6.5,27.1h5.7l-10.4,43.9h-98.5l10.4-43.9h4.8l6.4-27.1h-5.3    l10.4-43.9h98.5l-10.4,43.9H-115.6z M-305.3,385.2l-12.3,51.9l-23,19.1h-48.7l-16.2-23.9l11.2-47.1h-5.3l10.4-43.9h99.4    l-10.4,43.9H-305.3z M-527.4,427.2l13.2-57.5h-7.6l13.5-56.7h93.4l20.1,33.9l-10.1,43.7l-6.7,6.3l4,5.7l-5.7,24.6h7.5l-13.5,56.7    h-129.3l13.5-56.7H-527.4z"/>
		<path class="st1" d="M-228.5,391.4l8.2,10.9l-7.5,31.4l-19.4,16.2h-42.7l-12.8-18.6l5.6-23.5h10.7l-8.1-10.7l8-33.6l19.2-15.8    h42.1l13.4,19.7l-5.8,24.2h-10.9V391.4z M-257.1,383.3h7.1l1.1-4.3h-7.1L-257.1,383.3z M-264.5,414.6l-0.9,4h6.7l0.4-0.3l0.9-3.7    H-264.5z M-152.7,347.5h44.6l-7.5,31.4h-5l-9.4,39.6h5.6l-7.4,31.3h-85.6l7.5-31.3h4.8l9.4-39.6h-5.3l7.4-31.4H-152.7z     M-161.6,378.9l-0.8,3.3h6.8l0.7-3.3H-161.6z M-169,418.5h4.8l1.2-5h-6.8l-1.2,5H-169z M-342.4,347.5h44.6l-7.5,31.4h-5l-13,54.6    l-19.6,16.3H-386l-12.7-18.8l12.4-52.1h-5.3l7.5-31.4H-342.4z M-352.2,378.9l-9.4,39.6h7.6l0,0l9.4-39.6H-352.2z M-522.3,433.5    l16.1-70.1h-7.5l10.5-44.1h84.8l17,28.7l-9.1,39.4l-9.3,8.8l5.5,7.8l-6.8,29.5h7.3l-10.5,44.1h-53.1l13.8-59.8l-0.1-0.2h-8.9    l-3.6,15.9h7.3l-10.5,44.1h-61.2l10.5-44.1L-522.3,433.5L-522.3,433.5z M-453,371.9l1.9-8.4h-9.1l-2.3,10.1h7.3L-453,371.9z"/>
		<g>
			<polygon class="st2" points="-262,388.8 -245.6,388.8 -237.4,388.8 -226.4,403.6 -232.8,430.6 -249.2,444.3 -258.8,444.3      -277.3,444.3 -287,444.3 -296.8,430.1 -292.7,413.3 -269.9,413.3 -271.9,421.3 -269.8,424.1 -257,424.1 -253.4,421.6      -251.1,411.8 -253.5,409 -268.9,409 -274,409 -278.6,409 -288.6,395.7 -281.6,366.5 -265.4,353.1 -255.7,353.1 -237.2,353.1      -228.3,353.1 -217.9,368.3 -222.1,385.8 -244.9,385.8 -242.6,376.1 -244.7,373.3 -258.7,373.3 -260.8,375.1 -263.6,386.6    "/>
			<polygon class="st2" points="-189.3,353.1 -183.9,353.1 -161.1,353.1 -156.1,353.1 -160.9,373.3 -165.9,373.3 -169.4,387.8      -151.3,387.8 -147.8,373.3 -153.1,373.3 -148.3,353.1 -143,353.1 -120.2,353.1 -115.1,353.1 -119.9,373.3 -125,373.3      -137.1,424.1 -131.4,424.1 -136.2,444.3 -141.8,444.3 -164.6,444.3 -169.4,444.3 -164.6,424.1 -159.8,424.1 -156,408 -174.2,408      -178,424.1 -172.4,424.1 -177.2,444.3 -182.8,444.3 -205.6,444.3 -210.4,444.3 -205.5,424.1 -200.8,424.1 -188.8,373.3      -194.1,373.3    "/>
			<polygon class="st2" points="-374.5,353.1 -351.8,353.1 -346.7,353.1 -351.5,373.3 -356.5,373.3 -367.6,419.8 -365.5,424.1      -352,424.1 -349,421.6 -337.5,373.3 -342.8,373.3 -338,353.1 -332.7,353.1 -309.9,353.1 -304.8,353.1 -309.6,373.3 -314.7,373.3      -328.3,430.5 -344.9,444.3 -349.9,444.3 -354.4,444.3 -373.4,444.3 -383.1,444.3 -392.8,430 -379.4,373.3 -384.7,373.3      -379.9,353.1    "/>
			<path class="st2" d="M-525.7,439.1h7.8l18.7-81.2h-7.5l7.9-33h7.1h34.7h20.4h15l14.3,24l-8.2,35.6l-11.5,11l6.8,9.6l-7.8,34h7.3     l-7.9,33h-41.8l12.6-54.8l-2.3-5.3H-477l-6.2,27.1h7.3l-7.9,33h-49.8L-525.7,439.1z M-448,375l3.1-13.4l-2.6-3.7h-17l-4.9,21.2     h16.1L-448,375z"/>
		</g>
		<g>
			<path d="M-491.4,313.8c1.7,2.7-0.5,6.6-3.7,7.9c-0.7,0.4-1.5,0.5-2.4,0.7c-1.1,0.2-2.4,0.4-3.6,1.2c-2.4,1.4-5.8,4.8-8.7,11     c-2.2,4.7-4,11-5,19.4c-0.6,5.1-0.2,10.6,0.6,15.8l-0.9,3.7l-11,48c-15.3-17.4-23-28.9-23.5-54.1c-0.1-6.3,0.8-9.9,2.9-15.8     c1.2,3.1,1.9,8.1,4.2,11.8c-1.9-20.5,8.1-40,23-54.5c11.4-11.2,25.6-19.7,41.3-21.5c1.8-6,11.4-7.9,22-8.1     c10.3-0.1,21.5,1.4,26.8,2.4c0.8,0.1,1.4,0.3,1.9,0.4c11.2,2.6,18.8,5.8,24.5,9.1c5.8,3.4,9.4,6.9,12.6,10.2c2.8,3,6,7.8,8,12.4     c1.1,2.5,1.8,5,1.9,7.1c0.5,9.6-11.2,7.5-16.3,2.8c-3,10.8-12.6,5.4-18.4,0.6c-1.5-1.2-2.8-2.3-3.5-2.6c-0.4-0.1-1.4,1.2-2.4,2.4     c-1.7,2.3-3.6,4.8-6.5,4.5c-3-0.1-5-2.2-7.6-4.9l0,0c-3-3.1-6.6-5.8-10.4-8.1c0.3,0.5,0.5,1.1,0.6,1.6c0.5,1.4,0.7,2.7,0.7,4     c-0.1,1.4-0.4,2.7-1.2,3.8c-0.7,1-1.7,1.8-3.1,2.3c-3.2,1.1-6.6,0.6-10.6-1c-3.7-1.4-7.8-4-12.4-7.2     C-477.1,315.6-485.8,314.3-491.4,313.8z"/>
			<path class="st3" d="M-469.7,316.8c4.4,3.1,8.4,5.5,11.7,6.8c3.2,1.3,6,1.7,8.4,0.9c0.6-0.2,1.1-0.6,1.4-1.1     c0.4-0.5,0.6-1.2,0.6-2c0.1-0.9-0.1-1.9-0.5-2.9c-2.3-7-8.6-8.4-15.2-10.6c-1.6-0.6-1.4-1.3,0.2-0.9c13,3.4,19.7,3.7,30.2,14.5     l0,0c2.1,2.2,3.7,3.9,5.5,4c1.2,0.1,2.4-1.7,3.7-3.2c1.7-2.4,3.4-4.5,6-3.5c1.2,0.4,2.7,1.7,4.5,3.1c4,3.2,12,9.1,13.4,0.1     c0.5-3.1,2.2-3.5,4.3-1.3c2.8,2.9,12,7,11.7,0.4c-0.1-1.7-0.7-3.7-1.7-5.9c-1.8-4.2-4.8-8.7-7.3-11.4c-3-3.1-6.5-6.5-11.9-9.6     c-5.4-3.2-12.8-6.3-23.5-8.8c-0.4-0.1-1-0.2-1.7-0.4c-5.1-0.9-16.1-2.4-26.1-2.3c-8.4,0.1-15.9,1.2-18.4,4.4     c6.3-0.4,12.8,0.1,19.9,1.2c1.2,0.2,1.1,1.2-0.2,1c-21.8-3.4-45.6,6.8-62.8,23c-12.2,11.6-21.5,25.8-22.6,42     c-0.9,11.2,3.1,25,8.5,35.1c1.9,3.7,1.1,3.7-0.8,0.4c-8.7-14.6-8.1-14.7-14-32c-3.8,21,7.5,45.2,20.8,61.9l9.8-42.7     c-1.8-7.5-3-16-2.1-23.8c0.9-8.7,3-15.4,5.2-20.4c3.2-7.1,7.2-10.9,10.2-12.5c1.7-0.9,3.2-1.2,4.5-1.5c0.7-0.1,1.4-0.3,1.8-0.4     c0.7-0.4,1.2-0.8,1.4-1.4c1.9-4.3-1.9-5.9-5.6-6.2C-492.5,307.9-475.1,313-469.7,316.8z"/>
			<path class="st4" d="M-458.9,288.9c-20.7-1.5-42.6,8.4-58.7,23.5c-12.2,11.6-21.5,25.8-22.6,42c-0.5,6.7,0.7,14.3,3,21.5     c2.4,8.1,9.6,17.6,15.5,24.2c0.2,0.1,0.4,0.4,0.5,0.4l0.4-1.3c-11.8-12.7-19.7-32.9-17-49.3c2.2-13,7.7-25.1,28.9-42.9     C-487.8,289.3-459,288.9-458.9,288.9z M-539.3,398.4c3.7,7.9,8.5,15.3,13.6,21.7l0.9-4.1c-0.4-0.4-0.9-0.9-1.4-1.4     C-531.1,409.9-536,403.2-539.3,398.4z"/>
			<path class="st2" d="M-466.3,304.8c0,0,15.4,2,24.2,7.1c8.7,5.1,13.4,9.5,13.4,9.5c6.6-12,16.2-0.9,21.7-0.3c2.6,0.2,2.6-6.4,7-6     c4.4,0.4,10.2,5.9,11.1,6c0.9,0.1,2.3-1.2,0.8-5.3c-3.5-9.5-10.9-14.3-19.4-19.2c7.1,5.3,13.4,10,15.5,19     c-4-2.1-13.9-6.8-15.8,0.1c-9.5-12.5-18.5-16.1-33.6-19.3c14.2,4.6,21.5,7.7,30.5,19.9c-5.8-4.7-15.3-6.8-18.9,1.6     C-439.3,309.6-453.6,304.3-466.3,304.8z M-517,382.2c-5.5-11.4-9.1-24.3-3.9-36.5c-12.2,9.6-4.8,28.4,3.7,37.6L-517,382.2z      M-480.2,311c0,0,9.8,3.2,15.6,6c4.6,2.3,15.8,6.3,8.8-3c2.3,6.5-5.9,2.5-8.1,1.8C-469.2,313.9-475.9,311.4-480.2,311z"/>
		</g>
	</g>
</g>
<path class="st0" d="M160,531.5l27.6-120.4h-15.9L200,292.5h195.5l42.1,71l-21.1,91.5l-14,13.2l8.4,11.9l-11.9,51.5h15.7  l-28.3,118.7H115.7l28.3-118.7H160z"/>
<path class="st1" d="M170.7,544.7L204.4,398h-15.7l22-92.3h177.5l35.6,60.1l-19.1,82.5l-19.5,18.4l11.5,16.3l-14.2,61.8h15.3  l-22,92.3H264.7l28.9-125.2l-0.2-0.4h-18.6l-7.5,33.3h15.3l-22,92.3H132.4l22-92.3L170.7,544.7L170.7,544.7z M315.8,415.8l4-17.6  h-19.1l-4.8,21.1h15.3L315.8,415.8z"/>
<g>
	<path class="st2" d="M163.6,556.5h16.3l39.1-170h-15.7l16.5-69.1h14.9h72.6h42.7h31.4l29.9,50.2l-17.2,74.5l-24.1,23l14.2,20.1   l-16.3,71.2h15.3l-16.5,69.1h-87.5l26.4-114.7l-4.8-11.1h-35.4l-13,56.7h15.3l-16.5,69.1H147.1L163.6,556.5z M326.3,422.3l6.5-28.1   l-5.4-7.7h-35.6l-10.3,44.4h33.7L326.3,422.3z"/>
</g>
<g>
	<path d="M235.4,294.1c3.6,5.7-1,13.8-7.7,16.5c-1.5,0.8-3.1,1-5,1.5c-2.3,0.4-5,0.8-7.5,2.5c-5,2.9-12.1,10-18.2,23   c-4.6,9.8-8.4,23-10.5,40.6c-1.3,10.7-0.4,22.2,1.3,33.1l-1.9,7.7l-23,100.5c-32-36.4-48.2-60.5-49.2-113.3   c-0.2-13.2,1.7-20.7,6.1-33.1c2.5,6.5,4,17,8.8,24.7c-4-42.9,17-83.7,48.2-114.1c23.9-23.4,53.6-41.2,86.5-45   c3.8-12.6,23.9-16.5,46.1-17c21.6-0.2,45,2.9,56.1,5c1.7,0.2,2.9,0.6,4,0.8c23.4,5.4,39.4,12.1,51.3,19.1   c12.1,7.1,19.7,14.4,26.4,21.4c5.9,6.3,12.6,16.3,16.7,26c2.3,5.2,3.8,10.5,4,14.9c1,20.1-23.4,15.7-34.1,5.9   c-6.3,22.6-26.4,11.3-38.5,1.3c-3.1-2.5-5.9-4.8-7.3-5.4c-0.8-0.2-2.9,2.5-5,5c-3.6,4.8-7.5,10-13.6,9.4   c-6.3-0.2-10.5-4.6-15.9-10.3l0,0c-6.3-6.5-13.8-12.1-21.8-17c0.6,1,1,2.3,1.3,3.3c1,2.9,1.5,5.7,1.5,8.4c-0.2,2.9-0.8,5.7-2.5,8   c-1.5,2.1-3.6,3.8-6.5,4.8c-6.7,2.3-13.8,1.3-22.2-2.1c-7.7-2.9-16.3-8.4-26-15.1C265.3,297.9,247.1,295.2,235.4,294.1z"/>
	<path class="st3" d="M280.8,300.4c9.2,6.5,17.6,11.5,24.5,14.2c6.7,2.7,12.6,3.6,17.6,1.9c1.3-0.4,2.3-1.3,2.9-2.3   c0.8-1,1.3-2.5,1.3-4.2c0.2-1.9-0.2-4-1-6.1c-4.8-14.7-18-17.6-31.8-22.2c-3.3-1.3-2.9-2.7,0.4-1.9c27.2,7.1,41.2,7.7,63.2,30.4   l0,0c4.4,4.6,7.7,8.2,11.5,8.4c2.5,0.2,5-3.6,7.7-6.7c3.6-5,7.1-9.4,12.6-7.3c2.5,0.8,5.7,3.6,9.4,6.5c8.4,6.7,25.1,19.1,28.1,0.2   c1-6.5,4.6-7.3,9-2.7c5.9,6.1,25.1,14.7,24.5,0.8c-0.2-3.6-1.5-7.7-3.6-12.4c-3.8-8.8-10-18.2-15.3-23.9   c-6.3-6.5-13.6-13.6-24.9-20.1c-11.3-6.7-26.8-13.2-49.2-18.4c-0.8-0.2-2.1-0.4-3.6-0.8c-10.7-1.9-33.7-5-54.6-4.8   c-17.6,0.2-33.3,2.5-38.5,9.2c13.2-0.8,26.8,0.2,41.7,2.5c2.5,0.4,2.3,2.5-0.4,2.1c-45.6-7.1-95.5,14.2-131.5,48.2   c-25.5,24.3-45,54-47.3,87.9c-1.9,23.4,6.5,52.3,17.8,73.5c4,7.7,2.3,7.7-1.7,0.8c-18.2-30.6-17-30.8-29.3-67   c-8,44,15.7,94.6,43.5,129.6l20.5-89.4c-3.8-15.7-6.3-33.5-4.4-49.8c1.9-18.2,6.3-32.2,10.9-42.7c6.7-14.9,15.1-22.8,21.4-26.2   c3.6-1.9,6.7-2.5,9.4-3.1c1.5-0.2,2.9-0.6,3.8-0.8c1.5-0.8,2.5-1.7,2.9-2.9c4-9-4-12.4-11.7-13   C233.1,281.8,269.5,292.5,280.8,300.4z"/>
	<path class="st4" d="M303.4,242c-43.3-3.1-89.2,17.6-122.9,49.2c-25.5,24.3-45,54-47.3,87.9c-1,14,1.5,29.9,6.3,45   c5,17,20.1,36.8,32.4,50.7c0.4,0.2,0.8,0.8,1,0.8l0.8-2.7c-24.7-26.6-41.2-68.9-35.6-103.2c4.6-27.2,16.1-52.5,60.5-89.8   C242.9,242.9,303.2,242,303.4,242z M135.1,471.2c7.7,16.5,17.8,32,28.5,45.4l1.9-8.6c-0.8-0.8-1.9-1.9-2.9-2.9   C152.3,495.3,142,481.3,135.1,471.2z"/>
	<path class="st2" d="M287.9,275.3c0,0,32.2,4.2,50.7,14.9c18.2,10.7,28.1,19.9,28.1,19.9c13.8-25.1,33.9-1.9,45.4-0.6   c5.4,0.4,5.4-13.4,14.7-12.6c9.2,0.8,21.4,12.4,23.2,12.6c1.9,0.2,4.8-2.5,1.7-11.1c-7.3-19.9-22.8-29.9-40.6-40.2   c14.9,11.1,28.1,20.9,32.4,39.8c-8.4-4.4-29.1-14.2-33.1,0.2c-19.9-26.2-38.7-33.7-70.3-40.4c29.7,9.6,45,16.1,63.9,41.7   c-12.1-9.8-32-14.2-39.6,3.3C344.5,285.3,314.5,274.3,287.9,275.3z M181.8,437.3c-11.5-23.9-19.1-50.9-8.2-76.4   c-25.5,20.1-10,59.5,7.7,78.7L181.8,437.3z M258.8,288.3c0,0,20.5,6.7,32.7,12.6c9.6,4.8,33.1,13.2,18.4-6.3   c4.8,13.6-12.4,5.2-17,3.8C281.9,294.3,267.8,289.1,258.8,288.3z"/>
</g>
</svg>